<svg width="16" height="16" viewBox="0 0 16 16" fill="none" xmlns="http://www.w3.org/2000/svg">
<g clip-path="url(#clip0_172_136)">
<path d="M3.6363 6.43588C3.48895 5.02723 2.67564 4.21188 1.74564 4.21188V4.21323C1.68952 4.21316 1.63345 4.21604 1.57764 4.22188C0.579642 4.32454 -0.133014 5.32054 0.0216419 6.81323C0.170986 8.24123 1.0343 9.33323 1.98299 9.33323C2.02595 9.33332 2.06892 9.33107 2.11164 9.32657C3.11164 9.22254 3.7923 7.92654 3.6363 6.43588ZM1.9723 7.99188C1.58258 7.66438 1.3952 7.20523 1.34764 6.67454C1.34764 6.33882 1.34445 6.00757 1.49364 5.7092C1.57655 5.55326 1.67764 5.55054 1.7163 5.54654L1.74577 5.54604C1.97042 5.54604 2.24295 5.92985 2.3103 6.57385C2.35642 7.07545 2.28533 7.59063 1.9723 7.99188Z" fill="white"/>
<path d="M5.6448 5.63334C5.69215 5.63334 5.7388 5.63334 5.78615 5.626C6.88415 5.51134 7.6348 4.08734 7.46349 2.446C7.30149 0.897344 6.4068 0 5.38415 0C5.32268 6.25e-05 5.26127 0.003375 5.20015 0.01C4.10149 0.124 3.31615 1.21934 3.48749 2.86134C3.65215 4.432 4.60015 5.63334 5.6448 5.63334ZM4.99415 1.57334C5.0613 1.441 5.19011 1.35094 5.33749 1.33334C5.35302 1.33238 5.36861 1.33238 5.38415 1.33334C5.69349 1.33334 6.0508 1.76334 6.13749 2.58469C6.19977 3.06241 6.12486 3.54797 5.92149 3.98469C5.80015 4.21469 5.67815 4.29469 5.64483 4.29803C5.47349 4.29803 4.92218 3.75538 4.81349 2.72069C4.74399 2.32878 4.80758 1.92491 4.99415 1.57334Z" fill="white"/>
<path d="M10.2432 5.626C10.2905 5.63066 10.3378 5.63334 10.3845 5.63334C11.4279 5.63334 12.3779 4.43334 12.5419 2.86134C12.7132 1.21934 11.9279 0.124 10.8305 0.01C10.7692 0.003375 10.7075 3.125e-05 10.6459 0C9.62251 0 8.72785 0.897344 8.56585 2.446C8.39451 4.08734 9.14517 5.51266 10.2432 5.626ZM9.89251 2.584C9.97786 1.76334 10.3339 1.33334 10.6459 1.33334C10.6612 1.33234 10.6765 1.33234 10.6919 1.33334C10.8391 1.35078 10.9679 1.44059 11.0352 1.57269C11.2225 1.92403 11.2861 2.32813 11.2159 2.72003C11.1079 3.75469 10.5559 4.29738 10.3819 4.29738C10.3512 4.29738 10.2292 4.21403 10.1079 3.98403C9.90442 3.54731 9.8297 3.06166 9.89251 2.584Z" fill="white"/>
<path d="M8.00061 7.33336C4.97261 7.33336 2.00061 10.4274 1.99661 13.5794C1.91395 15.712 3.72995 16.4847 5.92995 15.698C7.27114 15.2407 8.72611 15.2407 10.0673 15.698C10.584 15.8725 11.1225 15.9741 11.6673 16C13.596 16 14.0006 14.6834 14.0006 13.5794C14.0006 10.4274 11.0286 7.33336 8.00061 7.33336ZM8.00061 14C6.49795 13.762 3.18461 15.8887 3.33395 13.5794C3.33395 11.146 5.68929 8.6667 8.00061 8.6667C10.3119 8.6667 12.6673 11.146 12.6673 13.5794C12.818 15.8867 9.51061 13.7647 8.00061 14Z" fill="white"/>
<path d="M14.6476 4.92714L14.6473 4.92845C14.5927 4.91542 14.5375 4.90532 14.4818 4.8981C13.4871 4.76773 12.5638 5.57245 12.3699 7.06051C12.1857 8.48445 12.7738 9.74617 13.6969 9.96504C13.7387 9.97504 13.781 9.98279 13.8237 9.98823C14.8207 10.1178 15.782 9.01379 15.9741 7.52732C16.1558 6.1227 15.5525 5.1417 14.6476 4.92714ZM14.6521 7.3557C14.5812 7.85435 14.3932 8.33926 13.996 8.65745C13.6924 8.24885 13.616 7.75888 13.6921 7.23154C13.7696 6.90488 13.843 6.58182 14.0569 6.32595C14.1736 6.19335 14.2726 6.21401 14.3111 6.21904L14.3399 6.22539C14.5585 6.2772 14.7351 6.71354 14.6521 7.3557Z" fill="white"/>
</g>
<defs>
<clipPath id="clip0_172_136">
<rect width="16" height="16" fill="white"/>
</clipPath>
</defs>
</svg>
