<svg width="20" height="20" viewBox="0 0 20 20" fill="none" xmlns="http://www.w3.org/2000/svg">
<path fill-rule="evenodd" clip-rule="evenodd" d="M5.20239 11.6409C5.23796 11.653 5.27385 11.6614 5.30972 11.6666C5.34883 11.7586 5.39936 11.8774 5.45831 12.0165C5.60218 12.3558 5.79604 12.8147 5.99614 13.2935C6.40421 14.2698 6.81584 15.2763 6.90675 15.5644C7.01929 15.9205 7.13825 16.1627 7.26811 16.328C7.33525 16.4135 7.41292 16.4881 7.50379 16.5446C7.54954 16.573 7.59785 16.5964 7.64829 16.6137C7.65052 16.6146 7.65274 16.6153 7.65496 16.616C7.91497 16.7142 8.15203 16.6733 8.30045 16.6233C8.37986 16.5965 8.44411 16.5643 8.48965 16.5381C8.51288 16.5247 8.53249 16.5123 8.54814 16.5017L8.55183 16.4993L10.8481 15.0672L13.5006 17.1008C13.5397 17.1307 13.5824 17.1559 13.6276 17.1757C13.9462 17.3147 14.2548 17.3632 14.5451 17.3235C14.8349 17.284 15.0649 17.1623 15.2362 17.0252C15.4039 16.8911 15.5176 16.7407 15.5884 16.6291C15.6245 16.5721 15.6517 16.5216 15.6709 16.483C15.6804 16.4636 15.6882 16.4469 15.6942 16.4335L15.7018 16.4157L15.7047 16.4088L15.706 16.4058L15.7064 16.4045L15.707 16.4032C15.7209 16.3683 15.7316 16.3322 15.7389 16.2954L18.1604 4.08723C18.1681 4.04819 18.172 4.00847 18.172 3.96867C18.172 3.61116 18.0373 3.27121 17.7205 3.06492C17.4498 2.88861 17.1482 2.88102 16.9577 2.89548C16.752 2.91109 16.5622 2.96185 16.4348 3.0024C16.3685 3.02351 16.3128 3.04387 16.2728 3.05941C16.2526 3.06721 16.2361 3.07392 16.2238 3.07903L16.2146 3.08291L2.63466 8.4101L2.6329 8.41075C2.62425 8.41392 2.61313 8.41806 2.59993 8.42318C2.57364 8.43342 2.5384 8.4478 2.49725 8.46649C2.41699 8.50289 2.30439 8.55968 2.18885 8.63882C2.00425 8.76524 1.57973 9.11145 1.65122 9.68288C1.70824 10.1388 2.02055 10.4188 2.21083 10.5534C2.31531 10.6273 2.41458 10.6801 2.48686 10.7146C2.5204 10.7305 2.59003 10.7588 2.62024 10.7711L2.62786 10.7742L5.20239 11.6409ZM16.6898 4.20514L16.6879 4.20596C16.6811 4.20891 16.6744 4.21172 16.6675 4.21441L3.07109 9.54809C3.06399 9.55085 3.05684 9.55353 3.04964 9.55605L3.04208 9.55889C3.03338 9.56231 3.01873 9.56824 3.00036 9.57652C2.98993 9.58124 2.97905 9.58644 2.96796 9.59196C2.9832 9.60057 2.99778 9.60797 3.01074 9.61414C3.02318 9.62007 3.03267 9.62414 3.03786 9.62625L5.59125 10.4859C5.63798 10.5016 5.68155 10.5224 5.72154 10.5476L14.1527 5.61208L14.1606 5.60741C14.1667 5.60378 14.1748 5.59912 14.1845 5.59365C14.2036 5.5828 14.23 5.56837 14.2613 5.5524C14.3198 5.52262 14.4135 5.47841 14.519 5.44582C14.5923 5.42312 14.8089 5.35919 15.043 5.43427C15.1874 5.48061 15.337 5.58023 15.4343 5.74898C15.4826 5.83283 15.5084 5.91705 15.5209 5.99415C15.554 6.1156 15.5487 6.23553 15.5228 6.33907C15.4669 6.56211 15.3103 6.73608 15.1677 6.86915C15.0455 6.98324 13.4648 8.50736 11.9056 10.0119C11.1279 10.7622 10.3583 11.5052 9.78299 12.0604L9.40518 12.4252L14.1761 16.0829C14.2855 16.1221 14.3502 16.1202 14.3801 16.116C14.4158 16.1111 14.445 16.0974 14.4748 16.0736C14.5081 16.047 14.5373 16.0109 14.559 15.9765L14.5599 15.9751L16.9085 4.13458C16.8736 4.14296 16.8383 4.15293 16.8044 4.16374C16.7659 4.17598 16.7342 4.18765 16.7132 4.1958C16.7027 4.19984 16.6953 4.2029 16.6912 4.20459L16.6898 4.20514ZM9.815 14.2752L8.86316 13.5454L8.63257 15.0126L9.815 14.2752ZM7.99002 12.0974L8.93653 11.1836C9.51186 10.6282 10.2816 9.88527 11.0593 9.13485L11.8495 8.37256L6.55195 11.4737L6.58037 11.5407C6.72475 11.8813 6.91947 12.3422 7.12063 12.8235C7.27105 13.1834 7.42834 13.5623 7.5716 13.9132L7.80157 12.4503C7.82374 12.3093 7.89264 12.1873 7.99002 12.0974Z" fill="white"/>
</svg>
