<svg width="18" height="17" viewBox="0 0 18 17" fill="none" xmlns="http://www.w3.org/2000/svg">
<g clip-path="url(#clip0_172_11407)">
<mask id="path-1-outside-1_172_11407" maskUnits="userSpaceOnUse" x="-0.078125" y="2.76562" width="18" height="12" fill="black">
<rect fill="white" x="-0.078125" y="2.76562" width="18" height="12"/>
<path fill-rule="evenodd" clip-rule="evenodd" d="M16.8409 12.0947C16.467 11.3415 15.9743 10.6536 15.3817 10.0571C15.1801 9.82271 14.9436 9.59136 14.7591 9.41083L14.7333 9.38559C14.6381 9.29237 14.5594 9.21503 14.495 9.14841C15.3053 8.02173 15.9987 6.81534 16.5646 5.54778L16.5874 5.49663L16.6034 5.44296C16.6777 5.19347 16.7634 4.71905 16.4604 4.2903C16.1472 3.84716 15.6458 3.76723 15.31 3.76723H13.7651C13.4431 3.75247 13.1242 3.83954 12.854 4.01655C12.5817 4.19489 12.3735 4.45504 12.2589 4.75913C11.9262 5.55161 11.5099 6.30539 11.0176 7.00786V5.19747C11.0176 4.96346 10.9956 4.57199 10.745 4.24157C10.445 3.84596 10.0111 3.76723 9.70991 3.76723H7.25862C6.9428 3.75993 6.63565 3.87286 6.3996 4.08366C6.15788 4.29953 6.00973 4.60108 5.9866 4.92436L5.98441 4.95498V4.98568C5.98441 5.31945 6.11667 5.56565 6.22233 5.72049C6.26964 5.78981 6.32024 5.85292 6.3522 5.89277L6.35957 5.90197C6.39365 5.94447 6.4164 5.97284 6.43923 6.00389C6.49929 6.08558 6.58567 6.21153 6.61011 6.53745V7.55011C6.18751 6.85541 5.7417 5.93095 5.40627 4.94362L5.40112 4.92846L5.39542 4.91351C5.31178 4.69446 5.17764 4.37573 4.90897 4.13183C4.5951 3.8469 4.22387 3.76723 3.88625 3.76723H2.31879C1.97723 3.76723 1.56546 3.84714 1.25823 4.17124C0.956094 4.48996 0.921875 4.87186 0.921875 5.07491V5.16644L0.941152 5.25591C1.37531 7.27106 2.2699 9.15817 3.55463 10.7697C4.13709 11.6882 4.92634 12.4581 5.85959 13.0177C6.80773 13.5862 7.87738 13.9213 8.98041 13.9954L9.00914 13.9973H9.03802C9.53701 13.9973 10.0572 13.9543 10.4484 13.6936C10.9762 13.342 11.0176 12.8019 11.0176 12.5327V11.7504C11.153 11.8598 11.3211 12.0072 11.5268 12.2053C11.7754 12.4542 11.9734 12.6699 12.1433 12.8581L12.2339 12.9589L12.2344 12.9594C12.3663 13.1063 12.4961 13.2509 12.6143 13.3697C12.7628 13.519 12.946 13.6836 13.1762 13.8051C13.4255 13.9368 13.6872 13.9963 13.9651 13.9963H15.5337C15.8641 13.9963 16.338 13.9181 16.6713 13.5318C17.0344 13.1108 17.0067 12.5948 16.8925 12.2239L16.8719 12.1573L16.8409 12.0947ZM12.9089 12.1673C12.7324 11.9716 12.5195 11.7395 12.2504 11.4705L12.2482 11.4683C11.3158 10.5694 10.8802 10.4128 10.5722 10.4128C10.4083 10.4128 10.227 10.4312 10.1094 10.5777C10.0539 10.6469 10.0247 10.7303 10.0084 10.8173C9.99199 10.9041 9.98636 11.0061 9.98636 11.1222V12.5327C9.98636 12.7079 9.95755 12.7814 9.87656 12.8355C9.76862 12.9074 9.53797 12.9657 9.04379 12.9661C8.10577 12.9022 7.19628 12.6168 6.3899 12.1333C5.58187 11.6488 4.9005 10.9792 4.40191 10.1798L4.39649 10.1711L4.39006 10.1631C3.19294 8.67307 2.35877 6.92518 1.95333 5.05751C1.95553 4.96747 1.97504 4.91406 2.00664 4.88072C2.03921 4.84636 2.11812 4.79848 2.31879 4.79848H3.88625C4.06062 4.79848 4.15086 4.83641 4.2158 4.89537C4.28944 4.96222 4.3533 5.07573 4.43088 5.27841C4.81561 6.41003 5.33589 7.46829 5.82856 8.24641C6.07481 8.63533 6.31716 8.95907 6.53551 9.1878C6.64451 9.30206 6.75141 9.39666 6.85342 9.46397C6.95216 9.52908 7.0641 9.58043 7.17921 9.58043C7.23996 9.58043 7.31101 9.57418 7.37942 9.54386C7.45301 9.51134 7.51013 9.45703 7.55046 9.38422C7.62181 9.25552 7.64136 9.06488 7.64136 8.81511V6.50256L7.64102 6.49713C7.60538 5.93452 7.43552 5.61805 7.27012 5.39306C7.23387 5.34375 7.19812 5.29922 7.16684 5.26024L7.15828 5.24957C7.12393 5.20674 7.0966 5.17213 7.07415 5.13922C7.033 5.07892 7.01705 5.03687 7.01574 4.99182C7.02111 4.93835 7.04632 4.88873 7.08652 4.85283C7.12824 4.81557 7.18284 4.79617 7.23874 4.79848H9.70991C9.85161 4.79848 9.89932 4.83305 9.92331 4.86472C9.95721 4.90942 9.98636 5.00239 9.98636 5.19747V8.31089C9.98636 8.6807 10.1569 8.93109 10.4044 8.93109C10.6893 8.93109 10.8947 8.75825 11.2538 8.3991L11.2598 8.39312L11.2652 8.38652C12.0701 7.40498 12.728 6.31142 13.2176 5.14023L13.2207 5.13145C13.2576 5.02797 13.3272 4.93937 13.4191 4.87917C13.511 4.81898 13.62 4.7905 13.7296 4.79808L13.7356 4.79848H15.31C15.5247 4.79848 15.5954 4.85313 15.6182 4.88545C15.6425 4.91983 15.6594 4.99353 15.6181 5.13805C15.0536 6.40058 14.3556 7.59899 13.5361 8.71315L13.531 8.72099C13.4514 8.84268 13.3642 8.97729 13.3515 9.13184C13.338 9.2978 13.4098 9.44871 13.5354 9.61041C13.627 9.74578 13.8159 9.93064 14.0075 10.1182L14.0256 10.1359C14.2264 10.3325 14.444 10.5455 14.6187 10.7517L14.6234 10.7572L14.6285 10.7622C15.1493 11.2817 15.5823 11.8823 15.9108 12.5403C15.9632 12.7195 15.9311 12.8111 15.8903 12.8583C15.8427 12.9136 15.7359 12.9651 15.5337 12.9651H13.9651C13.8426 12.9651 13.7481 12.9409 13.6577 12.8932C13.5636 12.8435 13.4668 12.7645 13.3454 12.6424C13.2477 12.5441 13.1408 12.4252 13.0105 12.2802C12.9782 12.2442 12.9444 12.2065 12.9089 12.1673Z"/>
</mask>
<path fill-rule="evenodd" clip-rule="evenodd" d="M16.8409 12.0947C16.467 11.3415 15.9743 10.6536 15.3817 10.0571C15.1801 9.82271 14.9436 9.59136 14.7591 9.41083L14.7333 9.38559C14.6381 9.29237 14.5594 9.21503 14.495 9.14841C15.3053 8.02173 15.9987 6.81534 16.5646 5.54778L16.5874 5.49663L16.6034 5.44296C16.6777 5.19347 16.7634 4.71905 16.4604 4.2903C16.1472 3.84716 15.6458 3.76723 15.31 3.76723H13.7651C13.4431 3.75247 13.1242 3.83954 12.854 4.01655C12.5817 4.19489 12.3735 4.45504 12.2589 4.75913C11.9262 5.55161 11.5099 6.30539 11.0176 7.00786V5.19747C11.0176 4.96346 10.9956 4.57199 10.745 4.24157C10.445 3.84596 10.0111 3.76723 9.70991 3.76723H7.25862C6.9428 3.75993 6.63565 3.87286 6.3996 4.08366C6.15788 4.29953 6.00973 4.60108 5.9866 4.92436L5.98441 4.95498V4.98568C5.98441 5.31945 6.11667 5.56565 6.22233 5.72049C6.26964 5.78981 6.32024 5.85292 6.3522 5.89277L6.35957 5.90197C6.39365 5.94447 6.4164 5.97284 6.43923 6.00389C6.49929 6.08558 6.58567 6.21153 6.61011 6.53745V7.55011C6.18751 6.85541 5.7417 5.93095 5.40627 4.94362L5.40112 4.92846L5.39542 4.91351C5.31178 4.69446 5.17764 4.37573 4.90897 4.13183C4.5951 3.8469 4.22387 3.76723 3.88625 3.76723H2.31879C1.97723 3.76723 1.56546 3.84714 1.25823 4.17124C0.956094 4.48996 0.921875 4.87186 0.921875 5.07491V5.16644L0.941152 5.25591C1.37531 7.27106 2.2699 9.15817 3.55463 10.7697C4.13709 11.6882 4.92634 12.4581 5.85959 13.0177C6.80773 13.5862 7.87738 13.9213 8.98041 13.9954L9.00914 13.9973H9.03802C9.53701 13.9973 10.0572 13.9543 10.4484 13.6936C10.9762 13.342 11.0176 12.8019 11.0176 12.5327V11.7504C11.153 11.8598 11.3211 12.0072 11.5268 12.2053C11.7754 12.4542 11.9734 12.6699 12.1433 12.8581L12.2339 12.9589L12.2344 12.9594C12.3663 13.1063 12.4961 13.2509 12.6143 13.3697C12.7628 13.519 12.946 13.6836 13.1762 13.8051C13.4255 13.9368 13.6872 13.9963 13.9651 13.9963H15.5337C15.8641 13.9963 16.338 13.9181 16.6713 13.5318C17.0344 13.1108 17.0067 12.5948 16.8925 12.2239L16.8719 12.1573L16.8409 12.0947ZM12.9089 12.1673C12.7324 11.9716 12.5195 11.7395 12.2504 11.4705L12.2482 11.4683C11.3158 10.5694 10.8802 10.4128 10.5722 10.4128C10.4083 10.4128 10.227 10.4312 10.1094 10.5777C10.0539 10.6469 10.0247 10.7303 10.0084 10.8173C9.99199 10.9041 9.98636 11.0061 9.98636 11.1222V12.5327C9.98636 12.7079 9.95755 12.7814 9.87656 12.8355C9.76862 12.9074 9.53797 12.9657 9.04379 12.9661C8.10577 12.9022 7.19628 12.6168 6.3899 12.1333C5.58187 11.6488 4.9005 10.9792 4.40191 10.1798L4.39649 10.1711L4.39006 10.1631C3.19294 8.67307 2.35877 6.92518 1.95333 5.05751C1.95553 4.96747 1.97504 4.91406 2.00664 4.88072C2.03921 4.84636 2.11812 4.79848 2.31879 4.79848H3.88625C4.06062 4.79848 4.15086 4.83641 4.2158 4.89537C4.28944 4.96222 4.3533 5.07573 4.43088 5.27841C4.81561 6.41003 5.33589 7.46829 5.82856 8.24641C6.07481 8.63533 6.31716 8.95907 6.53551 9.1878C6.64451 9.30206 6.75141 9.39666 6.85342 9.46397C6.95216 9.52908 7.0641 9.58043 7.17921 9.58043C7.23996 9.58043 7.31101 9.57418 7.37942 9.54386C7.45301 9.51134 7.51013 9.45703 7.55046 9.38422C7.62181 9.25552 7.64136 9.06488 7.64136 8.81511V6.50256L7.64102 6.49713C7.60538 5.93452 7.43552 5.61805 7.27012 5.39306C7.23387 5.34375 7.19812 5.29922 7.16684 5.26024L7.15828 5.24957C7.12393 5.20674 7.0966 5.17213 7.07415 5.13922C7.033 5.07892 7.01705 5.03687 7.01574 4.99182C7.02111 4.93835 7.04632 4.88873 7.08652 4.85283C7.12824 4.81557 7.18284 4.79617 7.23874 4.79848H9.70991C9.85161 4.79848 9.89932 4.83305 9.92331 4.86472C9.95721 4.90942 9.98636 5.00239 9.98636 5.19747V8.31089C9.98636 8.6807 10.1569 8.93109 10.4044 8.93109C10.6893 8.93109 10.8947 8.75825 11.2538 8.3991L11.2598 8.39312L11.2652 8.38652C12.0701 7.40498 12.728 6.31142 13.2176 5.14023L13.2207 5.13145C13.2576 5.02797 13.3272 4.93937 13.4191 4.87917C13.511 4.81898 13.62 4.7905 13.7296 4.79808L13.7356 4.79848H15.31C15.5247 4.79848 15.5954 4.85313 15.6182 4.88545C15.6425 4.91983 15.6594 4.99353 15.6181 5.13805C15.0536 6.40058 14.3556 7.59899 13.5361 8.71315L13.531 8.72099C13.4514 8.84268 13.3642 8.97729 13.3515 9.13184C13.338 9.2978 13.4098 9.44871 13.5354 9.61041C13.627 9.74578 13.8159 9.93064 14.0075 10.1182L14.0256 10.1359C14.2264 10.3325 14.444 10.5455 14.6187 10.7517L14.6234 10.7572L14.6285 10.7622C15.1493 11.2817 15.5823 11.8823 15.9108 12.5403C15.9632 12.7195 15.9311 12.8111 15.8903 12.8583C15.8427 12.9136 15.7359 12.9651 15.5337 12.9651H13.9651C13.8426 12.9651 13.7481 12.9409 13.6577 12.8932C13.5636 12.8435 13.4668 12.7645 13.3454 12.6424C13.2477 12.5441 13.1408 12.4252 13.0105 12.2802C12.9782 12.2442 12.9444 12.2065 12.9089 12.1673Z" fill="white"/>
<path fill-rule="evenodd" clip-rule="evenodd" d="M16.8409 12.0947C16.467 11.3415 15.9743 10.6536 15.3817 10.0571C15.1801 9.82271 14.9436 9.59136 14.7591 9.41083L14.7333 9.38559C14.6381 9.29237 14.5594 9.21503 14.495 9.14841C15.3053 8.02173 15.9987 6.81534 16.5646 5.54778L16.5874 5.49663L16.6034 5.44296C16.6777 5.19347 16.7634 4.71905 16.4604 4.2903C16.1472 3.84716 15.6458 3.76723 15.31 3.76723H13.7651C13.4431 3.75247 13.1242 3.83954 12.854 4.01655C12.5817 4.19489 12.3735 4.45504 12.2589 4.75913C11.9262 5.55161 11.5099 6.30539 11.0176 7.00786V5.19747C11.0176 4.96346 10.9956 4.57199 10.745 4.24157C10.445 3.84596 10.0111 3.76723 9.70991 3.76723H7.25862C6.9428 3.75993 6.63565 3.87286 6.3996 4.08366C6.15788 4.29953 6.00973 4.60108 5.9866 4.92436L5.98441 4.95498V4.98568C5.98441 5.31945 6.11667 5.56565 6.22233 5.72049C6.26964 5.78981 6.32024 5.85292 6.3522 5.89277L6.35957 5.90197C6.39365 5.94447 6.4164 5.97284 6.43923 6.00389C6.49929 6.08558 6.58567 6.21153 6.61011 6.53745V7.55011C6.18751 6.85541 5.7417 5.93095 5.40627 4.94362L5.40112 4.92846L5.39542 4.91351C5.31178 4.69446 5.17764 4.37573 4.90897 4.13183C4.5951 3.8469 4.22387 3.76723 3.88625 3.76723H2.31879C1.97723 3.76723 1.56546 3.84714 1.25823 4.17124C0.956094 4.48996 0.921875 4.87186 0.921875 5.07491V5.16644L0.941152 5.25591C1.37531 7.27106 2.2699 9.15817 3.55463 10.7697C4.13709 11.6882 4.92634 12.4581 5.85959 13.0177C6.80773 13.5862 7.87738 13.9213 8.98041 13.9954L9.00914 13.9973H9.03802C9.53701 13.9973 10.0572 13.9543 10.4484 13.6936C10.9762 13.342 11.0176 12.8019 11.0176 12.5327V11.7504C11.153 11.8598 11.3211 12.0072 11.5268 12.2053C11.7754 12.4542 11.9734 12.6699 12.1433 12.8581L12.2339 12.9589L12.2344 12.9594C12.3663 13.1063 12.4961 13.2509 12.6143 13.3697C12.7628 13.519 12.946 13.6836 13.1762 13.8051C13.4255 13.9368 13.6872 13.9963 13.9651 13.9963H15.5337C15.8641 13.9963 16.338 13.9181 16.6713 13.5318C17.0344 13.1108 17.0067 12.5948 16.8925 12.2239L16.8719 12.1573L16.8409 12.0947ZM12.9089 12.1673C12.7324 11.9716 12.5195 11.7395 12.2504 11.4705L12.2482 11.4683C11.3158 10.5694 10.8802 10.4128 10.5722 10.4128C10.4083 10.4128 10.227 10.4312 10.1094 10.5777C10.0539 10.6469 10.0247 10.7303 10.0084 10.8173C9.99199 10.9041 9.98636 11.0061 9.98636 11.1222V12.5327C9.98636 12.7079 9.95755 12.7814 9.87656 12.8355C9.76862 12.9074 9.53797 12.9657 9.04379 12.9661C8.10577 12.9022 7.19628 12.6168 6.3899 12.1333C5.58187 11.6488 4.9005 10.9792 4.40191 10.1798L4.39649 10.1711L4.39006 10.1631C3.19294 8.67307 2.35877 6.92518 1.95333 5.05751C1.95553 4.96747 1.97504 4.91406 2.00664 4.88072C2.03921 4.84636 2.11812 4.79848 2.31879 4.79848H3.88625C4.06062 4.79848 4.15086 4.83641 4.2158 4.89537C4.28944 4.96222 4.3533 5.07573 4.43088 5.27841C4.81561 6.41003 5.33589 7.46829 5.82856 8.24641C6.07481 8.63533 6.31716 8.95907 6.53551 9.1878C6.64451 9.30206 6.75141 9.39666 6.85342 9.46397C6.95216 9.52908 7.0641 9.58043 7.17921 9.58043C7.23996 9.58043 7.31101 9.57418 7.37942 9.54386C7.45301 9.51134 7.51013 9.45703 7.55046 9.38422C7.62181 9.25552 7.64136 9.06488 7.64136 8.81511V6.50256L7.64102 6.49713C7.60538 5.93452 7.43552 5.61805 7.27012 5.39306C7.23387 5.34375 7.19812 5.29922 7.16684 5.26024L7.15828 5.24957C7.12393 5.20674 7.0966 5.17213 7.07415 5.13922C7.033 5.07892 7.01705 5.03687 7.01574 4.99182C7.02111 4.93835 7.04632 4.88873 7.08652 4.85283C7.12824 4.81557 7.18284 4.79617 7.23874 4.79848H9.70991C9.85161 4.79848 9.89932 4.83305 9.92331 4.86472C9.95721 4.90942 9.98636 5.00239 9.98636 5.19747V8.31089C9.98636 8.6807 10.1569 8.93109 10.4044 8.93109C10.6893 8.93109 10.8947 8.75825 11.2538 8.3991L11.2598 8.39312L11.2652 8.38652C12.0701 7.40498 12.728 6.31142 13.2176 5.14023L13.2207 5.13145C13.2576 5.02797 13.3272 4.93937 13.4191 4.87917C13.511 4.81898 13.62 4.7905 13.7296 4.79808L13.7356 4.79848H15.31C15.5247 4.79848 15.5954 4.85313 15.6182 4.88545C15.6425 4.91983 15.6594 4.99353 15.6181 5.13805C15.0536 6.40058 14.3556 7.59899 13.5361 8.71315L13.531 8.72099C13.4514 8.84268 13.3642 8.97729 13.3515 9.13184C13.338 9.2978 13.4098 9.44871 13.5354 9.61041C13.627 9.74578 13.8159 9.93064 14.0075 10.1182L14.0256 10.1359C14.2264 10.3325 14.444 10.5455 14.6187 10.7517L14.6234 10.7572L14.6285 10.7622C15.1493 11.2817 15.5823 11.8823 15.9108 12.5403C15.9632 12.7195 15.9311 12.8111 15.8903 12.8583C15.8427 12.9136 15.7359 12.9651 15.5337 12.9651H13.9651C13.8426 12.9651 13.7481 12.9409 13.6577 12.8932C13.5636 12.8435 13.4668 12.7645 13.3454 12.6424C13.2477 12.5441 13.1408 12.4252 13.0105 12.2802C12.9782 12.2442 12.9444 12.2065 12.9089 12.1673Z" stroke="white" stroke-width="0.4" mask="url(#path-1-outside-1_172_11407)"/>
</g>
<defs>
<clipPath id="clip0_172_11407">
<rect width="16.5" height="16.5" fill="white" transform="translate(0.75 0.5)"/>
</clipPath>
</defs>
</svg>
