<svg width="20" height="20" viewBox="0 0 20 20" fill="none" xmlns="http://www.w3.org/2000/svg">
<path fill-rule="evenodd" clip-rule="evenodd" d="M15.2024 4.82681C14.5267 4.14665 13.7228 3.60734 12.8371 3.24011C11.9515 2.87289 11.0018 2.68506 10.0431 2.68749C6.02281 2.68749 2.75006 5.95943 2.74844 9.98131C2.74844 11.2667 3.084 12.5212 3.72181 13.6278L2.6875 17.4067L6.55419 16.3919C7.62376 16.9742 8.82204 17.2795 10.0398 17.28H10.0431C14.0625 17.28 17.3353 14.0081 17.3369 9.98618C17.3396 9.02782 17.1524 8.07842 16.7861 7.19285C16.4197 6.30728 15.8815 5.50311 15.2024 4.82681ZM10.0431 16.0491H10.0406C8.95473 16.0492 7.88883 15.757 6.95475 15.2032L6.73375 15.0716L4.43925 15.6737L5.05106 13.4369L4.90725 13.2077C4.30014 12.2412 3.97875 11.1227 3.98019 9.98131C3.98181 6.63868 6.70125 3.91924 10.0455 3.91924C10.842 3.91747 11.6309 4.07368 12.3665 4.37883C13.1022 4.68398 13.7701 5.13201 14.3314 5.69699C14.8958 6.25928 15.3432 6.92785 15.6476 7.66405C15.952 8.40026 16.1075 9.18951 16.1051 9.98618C16.1035 13.3288 13.3841 16.0491 10.0431 16.0491ZM13.3686 11.508C13.1858 11.4162 12.2904 10.9758 12.1231 10.9149C11.9565 10.8539 11.8354 10.8239 11.7136 11.0059C11.5917 11.1879 11.2423 11.5982 11.1359 11.7201C11.0294 11.8419 10.923 11.8566 10.741 11.7656C10.559 11.6746 9.97156 11.482 9.27525 10.8612C8.73331 10.3778 8.36769 9.78143 8.26125 9.59862C8.15481 9.41581 8.24988 9.31749 8.34169 9.22649C8.42375 9.14524 8.52369 9.01362 8.61469 8.90718C8.70569 8.80074 8.73575 8.72518 8.79669 8.60331C8.85763 8.48143 8.82756 8.37499 8.78125 8.28399C8.73575 8.19218 8.37094 7.29518 8.219 6.93037C8.07194 6.57693 7.92163 6.62406 7.8095 6.61918C7.69338 6.61443 7.57716 6.61226 7.46094 6.61268C7.36852 6.61504 7.27759 6.63646 7.19384 6.67561C7.11009 6.71476 7.03533 6.77078 6.97425 6.84018C6.80688 7.02299 6.33644 7.46337 6.33644 8.36037C6.33644 9.25737 6.98969 10.1243 7.08069 10.2462C7.17169 10.3681 8.36606 12.2084 10.1942 12.9981C10.6297 13.1858 10.9693 13.2979 11.2334 13.3824C11.6697 13.5214 12.067 13.5011 12.3814 13.4547C12.7316 13.4027 13.4596 13.0144 13.6116 12.5886C13.7635 12.1629 13.7635 11.7981 13.718 11.7217C13.6725 11.6453 13.5498 11.599 13.3686 11.508Z" fill="white"/>
</svg>
